# xmcd CD database file
#
# Track frame offsets:
#	150
#	17344
#	35804
#	53606
#	69589
#
# Disc length: 1178 seconds
#
# Revision: 0
# Processed by: cddbd v1.5.1PL2 Copyright (c) Steve Scherf et al.
# Submitted via: CDex 1.51
#
DISCID=38049805
DTITLE=Drew Davis Band - Drew Davis Band EP
DYEAR=2005
DGENRE=Country
TTITLE0=I Can't Stop You
TTITLE1=Burn
TTITLE2=Back There All The Time
TTITLE3=One Day
TTITLE4=That Moment
EXTD=YEAR: 2005
EXTT0=
EXTT1=
EXTT2=
EXTT3=
EXTT4=
PLAYORDER=
